<?xml version="1.0" encoding="UTF-8"?>
<svg width="75px" height="65px" viewBox="0 0 75 65" version="1.1" xmlns="http://www.w3.org/2000/svg" xmlns:xlink="http://www.w3.org/1999/xlink">
    <!-- Generator: Sketch 52.5 (67469) - http://www.bohemiancoding.com/sketch -->
    <title>House</title>
    <desc>Created with Sketch.</desc>
    <g id="Mobile-Sketch" stroke="none" stroke-width="1" fill="none" fill-rule="evenodd">
        <g id="Light---2-Copy-16" transform="translate(-35.000000, -533.000000)" fill="#FFE6C2" fill-rule="nonzero">
            <path d="M97.1330845,558.103436 L97.1330845,595.603436 C97.1330845,595.879578 96.9092268,596.103436 96.6330845,596.103436 L83.8669154,596.103436 L83.8669154,564.396564 C83.8669154,564.120422 83.6430577,563.896564 83.3669154,563.896564 L69.3669154,563.896564 C69.090773,563.896564 68.8669154,564.120422 68.8669154,564.396564 L68.8669154,596.103436 L46.6330845,596.103436 C46.3569421,596.103436 46.1330845,595.879578 46.1330845,595.603436 L46.1330845,558.103436 L36.766169,558.103436 C36.4900266,558.103436 36.266169,557.879578 36.266169,557.603436 C36.266169,557.437359 36.3486309,557.28212 36.4862403,557.189141 L71.8531558,533.292577 C72.0222813,533.178302 72.2438876,533.178302 72.4130132,533.292577 L107.779929,557.189141 C108.008737,557.343741 108.068895,557.654556 107.914294,557.883364 C107.821315,558.020974 107.666077,558.103436 107.5,558.103436 L97.1330845,558.103436 Z" id="Combined-Shape"></path>
        </g>
    </g>
</svg>